<svg xmlns="http://www.w3.org/2000/svg" version="1.1" xmlns:xlink="http://www.w3.org/1999/xlink" width="1000" height="1000"><style>
    #light-icon {
      display: inline;
    }
    #dark-icon {
      display: none;
    }

    @media (prefers-color-scheme: dark) {
      #light-icon {
        display: none;
      }
      #dark-icon {
        display: inline;
      }
    }
  </style><g id="light-icon"><svg xmlns="http://www.w3.org/2000/svg" version="1.1" xmlns:xlink="http://www.w3.org/1999/xlink" width="1000" height="1000"><g clip-path="url(#SvgjsClipPath1097)"><rect width="1000" height="1000" fill="#ffffff"></rect><g transform="matrix(3.6305547487656114,0,0,3.6305547487656114,0,78.91010746442055)"><svg xmlns="http://www.w3.org/2000/svg" version="1.1" xmlns:xlink="http://www.w3.org/1999/xlink" width="275.44" height="231.97"><svg id="Layer_2" xmlns="http://www.w3.org/2000/svg" xmlns:xlink="http://www.w3.org/1999/xlink" viewBox="0 0 275.44 231.97"><defs><style>.cls-1{fill:url(#linear-gradient);}.cls-2{fill:#fff;}.cls-3{fill:#bcbcbc;}.cls-4{fill:#efe4e4;}.cls-5{fill:#f4f4f4;filter:url(#drop-shadow-1);}</style><linearGradient id="linear-gradient" x1="25.27" y1="2.73" x2="242.91" y2="220.36" gradientUnits="userSpaceOnUse"><stop offset=".1" stop-color="#111"></stop><stop offset=".93" stop-color="#333"></stop></linearGradient><filter id="drop-shadow-1" x="51.5" y="78.23" width="101.04" height="101.28" filterUnits="userSpaceOnUse"><feOffset dx="7" dy="7"></feOffset><feGaussianBlur result="blur" stdDeviation="5"></feGaussianBlur><feFlood flood-color="#000" flood-opacity=".3"></feFlood><feComposite in2="blur" operator="in"></feComposite><feComposite in="SourceGraphic"></feComposite></filter><clipPath id="SvgjsClipPath1097"><rect width="1000" height="1000" x="0" y="0" rx="0" ry="0"></rect></clipPath></defs><path class="cls-1" d="M18.93,11.07h216.71c14.34,0,25.99,11.64,25.99,25.99v156.51c0,14.34-11.64,25.99-25.99,25.99H40.08c-14.34,0-25.99-11.64-25.99-25.99V15.91c0-2.67,2.17-4.83,4.83-4.83Z"></path><rect class="cls-3" x="56.3" y="145.01" width="77.5" height="26.24" rx="3.04" ry="3.04" transform="translate(-83.98 113.53) rotate(-45)"></rect><rect class="cls-5" x="56.3" y="108.77" width="77.5" height="26.24" rx="3.04" ry="3.04" transform="translate(114.03 -31.51) rotate(45)"></rect><rect class="cls-4" x="144.85" y="166.91" width="77.5" height="26.24" rx="3.04" ry="3.04"></rect><path class="cls-2" d="M75.91,58.25h-22.28c-3.59,0-5.92-3.77-4.33-6.98l19.98-40.32h33.07l-22.11,44.62c-.82,1.65-2.49,2.69-4.33,2.69Z"></path><path class="cls-2" d="M135.91,58.25h-22.28c-3.59,0-5.92-3.77-4.33-6.98l19.98-40.32h33.07l-22.11,44.62c-.82,1.65-2.49,2.69-4.33,2.69Z"></path><path class="cls-2" d="M195.91,58.25h-22.28c-3.59,0-5.92-3.77-4.33-6.98l19.98-40.32h33.07l-22.11,44.62c-.82,1.65-2.49,2.69-4.33,2.69Z"></path></svg></svg></g></g></svg></g><g id="dark-icon"><svg xmlns="http://www.w3.org/2000/svg" version="1.1" xmlns:xlink="http://www.w3.org/1999/xlink" width="1000" height="1000"><g><g transform="matrix(3.6305547487656114,0,0,3.6305547487656114,0,78.91010746442055)" style="filter: invert(100%)"><svg xmlns="http://www.w3.org/2000/svg" version="1.1" xmlns:xlink="http://www.w3.org/1999/xlink" width="275.44" height="231.97"><svg id="Layer_2" xmlns="http://www.w3.org/2000/svg" xmlns:xlink="http://www.w3.org/1999/xlink" viewBox="0 0 275.44 231.97"><defs><style>.cls-1{fill:url(#linear-gradient);}.cls-2{fill:#fff;}.cls-3{fill:#bcbcbc;}.cls-4{fill:#efe4e4;}.cls-5{fill:#f4f4f4;filter:url(#drop-shadow-1);}</style><linearGradient id="linear-gradient" x1="25.27" y1="2.73" x2="242.91" y2="220.36" gradientUnits="userSpaceOnUse"><stop offset=".1" stop-color="#111"></stop><stop offset=".93" stop-color="#333"></stop></linearGradient><filter id="drop-shadow-1" x="51.5" y="78.23" width="101.04" height="101.28" filterUnits="userSpaceOnUse"><feOffset dx="7" dy="7"></feOffset><feGaussianBlur result="blur" stdDeviation="5"></feGaussianBlur><feFlood flood-color="#000" flood-opacity=".3"></feFlood><feComposite in2="blur" operator="in"></feComposite><feComposite in="SourceGraphic"></feComposite></filter></defs><path class="cls-1" d="M18.93,11.07h216.71c14.34,0,25.99,11.64,25.99,25.99v156.51c0,14.34-11.64,25.99-25.99,25.99H40.08c-14.34,0-25.99-11.64-25.99-25.99V15.91c0-2.67,2.17-4.83,4.83-4.83Z"></path><rect class="cls-3" x="56.3" y="145.01" width="77.5" height="26.24" rx="3.04" ry="3.04" transform="translate(-83.98 113.53) rotate(-45)"></rect><rect class="cls-5" x="56.3" y="108.77" width="77.5" height="26.24" rx="3.04" ry="3.04" transform="translate(114.03 -31.51) rotate(45)"></rect><rect class="cls-4" x="144.85" y="166.91" width="77.5" height="26.24" rx="3.04" ry="3.04"></rect><path class="cls-2" d="M75.91,58.25h-22.28c-3.59,0-5.92-3.77-4.33-6.98l19.98-40.32h33.07l-22.11,44.62c-.82,1.65-2.49,2.69-4.33,2.69Z"></path><path class="cls-2" d="M135.91,58.25h-22.28c-3.59,0-5.92-3.77-4.33-6.98l19.98-40.32h33.07l-22.11,44.62c-.82,1.65-2.49,2.69-4.33,2.69Z"></path><path class="cls-2" d="M195.91,58.25h-22.28c-3.59,0-5.92-3.77-4.33-6.98l19.98-40.32h33.07l-22.11,44.62c-.82,1.65-2.49,2.69-4.33,2.69Z"></path></svg></svg></g></g></svg></g></svg>