<?xml version="1.0" encoding="UTF-8" standalone="no"?>
<svg xmlns="http://www.w3.org/2000/svg" xml:space="preserve" width="689.63" height="264.95801" version="1.0" viewBox="0 0 689.63 264.958">
  <path d="M195.937 235.483h-43.093l-13.822-52.852H76.685l-13.822 52.852H19.768L78.853 24.624h56.916l60.168 210.859zM108.395 60.942h-1.084l-22.225 88.352h45.533l-22.224-88.352zM256.92 235.483c-38.486 0-68.03-24.395-68.03-60.713 0-21.138 11.384-39.297 30.627-48.51-17.074-9.489-26.559-23.854-26.559-43.636 0-34.15 17.344-58 85.643-58h60.71v210.859H256.92zM297.033 57.96c-29.813 0-60.711-3.253-60.711 26.831 0 28.999 29.542 25.477 60.711 25.477V57.96zm0 144.187V142.25c-40.925-2.981-64.775.813-64.775 29.54 0 31.982 24.663 30.357 37.402 30.357h27.373zm54.793 33.336V24.624h60.71c68.301 0 85.644 23.85 85.644 58 0 19.782-9.486 34.147-26.563 43.636 19.248 9.213 30.625 27.373 30.625 48.51 0 36.318-29.54 60.713-68.021 60.713h-82.395zm42.277-125.216c31.17 0 60.71 3.522 60.71-25.477 0-30.083-30.896-26.831-60.71-26.831v52.308zm27.374 91.88c12.742 0 37.406 1.625 37.406-30.357 0-28.727-23.854-32.521-64.78-29.54v59.897h27.374zm247.32 33.336h-43.088l-13.822-52.852h-62.34l-13.822 52.852h-43.092l59.084-210.859h56.919l60.161 210.859zm-87.54-174.541h-1.08l-22.229 88.352h45.532l-22.223-88.352zm61.455-33.055c4.639 0 6.45 3.316 6.45 5.881 0 2.202-1.371 4.249-3.418 5.078l4.014 9.196h-4.247l-3.628-8.368H638.8v8.368h-4.04V27.887h7.952zm-2.149 8.367c1.761 0 4.455.104 4.455-2.409 0-2.772-2.72-2.538-4.713-2.538H638.8v4.947h1.763z"/>
  <path fill="none" stroke="#000" stroke-width="2.38439989" d="M625.595 38.028c0-9.001 7.298-16.298 16.295-16.298 9.003 0 16.3 7.297 16.3 16.298 0 9.001-7.297 16.297-16.3 16.297-8.997 0-16.295-7.296-16.295-16.297z"/>
  <path fill="none" d="M0 0h689.63v264.95801H0z"/>
</svg>