<?xml version="1.0" encoding="UTF-8"?>
<svg id="White" xmlns="http://www.w3.org/2000/svg" version="1.1" viewBox="0 0 2304.5 314.6">
  <!-- Generator: Adobe Illustrator 29.1.0, SVG Export Plug-In . SVG Version: 2.1.0 Build 142)  -->
  <defs>
    <style>
      .st0 {
        stroke: #fff;
        stroke-miterlimit: 10;
      }
    </style>
  </defs>
  <g>
    <path d="M647.5,313c-3.1,0-5.5-2.5-5.5-5.5V7.3c0-3.1,2.5-5.5,5.5-5.5s5.5,2.5,5.5,5.5v300.2c0,3.1-2.5,5.5-5.5,5.5h0Z"/>
    <g id="AMAZON_MGM_STUDIOS_OUTLINED">
      <path class="st0" d="M862.7,119.6l-13.1-35h-53.9l-13.1,35h-9.8L817.6,3h10.6l44.8,116.6h-10.3ZM799,76.3h47.6l-23.9-62.9-23.7,62.9h0Z"/>
      <path class="st0" d="M1035.3,119.6V17.9l-40.1,70.5h-9.4l-40.1-70v101.1h-9.4V2.9h11.8l42.7,75.1,42.4-75.1h11.4v116.6h-9.4,0Z"/>
      <path class="st0" d="M1197.8,119.6l-13.1-35h-53.9l-13.1,35h-9.8l44.8-116.6h10.6l44.8,116.6h-10.3ZM1134,76.3h47.6l-23.9-62.9-23.7,62.9h0Z"/>
      <path class="st0" d="M1264.3,119.6v-8.9l68.3-98.8h-64.1V3h75.4v8.7l-68.8,99h68.3v8.9h-79.1Z"/>
      <path class="st0" d="M1397.4,61.5c0-19.2,4.7-34.1,14.1-44.9,9.4-10.7,22.6-16.1,39.4-16.1s30,5.4,39.4,16.1,14.1,25.7,14.1,44.9-4.7,34.1-14.1,44.9c-9.4,10.7-22.6,16.1-39.4,16.1s-30-5.4-39.4-16.1c-9.4-10.7-14.1-25.7-14.1-44.9ZM1407.9,61.5c0,16.9,3.6,29.8,10.9,38.5s18,13.1,32.1,13.1,24.9-4.4,32.1-13.1c7.3-8.7,10.9-21.6,10.9-38.5s-3.6-29.8-10.9-38.5-18-13.1-32.1-13.1-24.9,4.4-32.1,13.1c-7.3,8.7-10.9,21.6-10.9,38.5h0Z"/>
      <path class="st0" d="M1583.1,17.6v102h-9.6V3h11.4l66.5,102.3V3h9.6v116.6h-11.4l-66.5-102h0Z"/>
      <path class="st0" d="M773.8,289.2v-95.1h6.9l49.5,68.8,49.7-68.8h6.9v95.1c0,11.4,1.8,16.3,7.6,23.2h-36.5c5.7-6.9,7.6-11.8,7.6-23.2v-46.8l-37.4,51.5-37-51.5v46.8c0,11.4,1.8,16.3,7.6,23.2h-32.3c5.7-6.9,7.6-11.8,7.6-23.2h-.2,0Z"/>
      <path class="st0" d="M1030.4,292.8v-16.2c0-11.3-1.3-15.3-6.1-21.9h32.7c-5,7.1-6.1,12.6-6.1,24.2v5.2c0,7.4,1.3,13,3.4,17.8-13.6,7.4-30.8,12.1-47.5,12.1-34.7,0-62.1-23.7-62.1-59.9s25.2-61.3,60.1-61.3,26.3,6.1,35.8,1l4.5,28.8c-9.8-8.1-23.2-12.6-35.3-12.6-22.4,0-40.2,17-40.2,43.8s17.7,43.3,39.9,43.3,15.1-1.7,20.9-4.4h0Z"/>
      <path class="st0" d="M1112.4,289.2v-95.1h6.9l49.5,68.8,49.7-68.8h6.9v95.1c0,11.4,1.8,16.3,7.6,23.2h-36.5c5.7-6.9,7.6-11.8,7.6-23.2v-46.8l-37.4,51.5-37-51.5v46.8c0,11.4,1.8,16.3,7.6,23.2h-32.3c5.7-6.9,7.6-11.8,7.6-23.2h-.2,0Z"/>
      <path class="st0" d="M1373.6,312.1l-4.9-28.3c16,11.9,27.4,16.8,39.2,16.7,10.6,0,19.4-6.6,19.2-16.2,0-10.9-11.4-15.7-24.1-21.4-15.7-6.7-33.2-14.8-33.3-36.5-.2-18.3,14.5-32.7,35.7-32.8,14.6,0,23.7,6.2,33.2,1.5l5,26.3c-13.5-9.3-24.7-13.6-33.8-13.5-10.3,0-16.8,5.9-16.8,15.1s10.9,15.8,23.2,21c16,6.7,34.2,14.1,34.3,35.8.2,19.4-17.2,33.7-38.7,33.8-18,0-28.1-7.4-38.2-1.7h0v.2h0Z"/>
      <path class="st0" d="M1536.2,289.2v-79.8h-9.3c-11.9,0-20.7,2-32.3,10.8l4.2-25.6h98.3l4.2,25.6c-11.6-8.7-20.4-10.8-32.3-10.8h-9.3v79.8c0,11.4,1.8,16.3,7.6,23.2h-38.7c5.7-6.9,7.6-11.8,7.6-23.2h0Z"/>
      <path class="st0" d="M1651.3,268.2v-50.3c0-11.4-2-16.3-7.7-23.2h38.9c-5.7,6.9-7.6,11.8-7.6,23.2v48.6c0,22.6,11.6,31.6,26.6,31.6s27.6-10.3,27.6-31.6v-48.6c0-11.4-1.8-16.3-7.6-23.2h31.6c-5.7,6.9-7.7,11.8-7.7,23.2v50.8c0,28.8-20.5,45.4-46.6,45.4s-47.5-15.8-47.5-45.9h0Z"/>
      <path class="st0" d="M1854.9,194.6c37.2,0,61.9,25.7,61.9,57.9s-25.9,59.9-62.4,59.9h-49.3c5.7-6.9,7.6-11.8,7.6-23.2v-71.4c0-11.4-1.8-16.3-7.6-23.2h49.8ZM1836.3,209.6v88.7h15.1c23.6,0,41.1-17.7,41.1-45.3s-18.8-43.4-42.6-43.4h-13.6Z"/>
      <path class="st0" d="M1978,289.2v-71.4c0-11.4-1.8-16.3-7.6-23.2h38.7c-5.7,6.9-7.6,11.8-7.6,23.2v71.4c0,11.4,1.8,16.3,7.6,23.2h-38.7c5.7-6.9,7.6-11.8,7.6-23.2Z"/>
      <path class="st0" d="M2115.3,314.1c-33,0-59.4-25.9-59.4-60.3s26.6-60.9,59.7-60.9,59.6,25.7,59.6,60.1-26.8,61.1-59.9,61.1h0ZM2115.3,299.5c19.5,0,34-16.5,34-45.4s-14.8-46.6-33.7-46.6-33.8,16.5-33.8,45.4,14.6,46.6,33.5,46.6h0Z"/>
      <path class="st0" d="M2227.1,312.1l-4.9-28.3c16,11.9,27.4,16.8,39.2,16.7,10.6,0,19.4-6.6,19.2-16.2,0-10.9-11.4-15.7-24.1-21.4-15.7-6.7-33.2-14.8-33.3-36.5-.2-18.3,14.5-32.7,35.7-32.8,14.6,0,23.7,6.2,33.2,1.5l5,26.3c-13.5-9.3-24.7-13.6-33.8-13.5-10.3,0-16.8,5.9-16.8,15.1s10.9,15.8,23.2,21c16,6.7,34.2,14.1,34.3,35.8.2,19.4-17.2,33.7-38.7,33.8-18,0-28.1-7.4-38.2-1.7h0v.2h0Z"/>
    </g>
  </g>
  <path d="M3.7,203.4c-1,0-1.8-.4-2.6-1.1C.3,201.6,0,200.8,0,199.7V50.5c0-1.1.4-1.9,1.1-2.6.8-.8,1.6-1.1,2.6-1.1h18.9c2.1,0,3.4,1.2,4,3.7l2.9,14.1h1.1c2.6-6.2,6.6-11.2,12.1-14.9,5.5-3.8,11.6-5.7,18.1-5.7s15.3,2.6,21.5,7.9c6.2,5.2,11,12.5,14.3,22,3.4,9.4,5.2,20.3,5.2,32.7s-1.7,23.4-5.2,32.9c-3.3,9.4-8.1,16.7-14.3,22-6.2,5.2-13.4,7.7-21.5,7.7s-12-1.6-16.8-4.9-8.9-8.2-12.5-14.9h-1.1v50.5c0,1.1-.4,1.9-1.1,2.6-.7.8-1.5,1.1-2.6,1.1H3.7v-.2h0ZM29.8,106.4c0,11.9,1.8,21,5.3,27.4s8.6,9.6,15.1,9.6,11.5-3.2,14.9-9.6c3.4-6.4,5.2-15.5,5.2-27.4s-1.7-21-5.2-27.4c-3.4-6.4-8.4-9.6-14.9-9.6s-11.5,3.2-15.1,9.6c-3.5,6.4-5.3,15.5-5.3,27.4ZM400.2,227.1c-1-2.1-.4-4.2,1.7-6.3,2.1-2,5.3-4.2,9.5-6.5,11.5-6,23.6-9,36.3-9s13,.9,19.4,2.7c6.5,1.8,10.8,4.1,12.8,6.9,2,3,2.7,7.8,2.2,14.5s-1.8,13.1-4,19.2c-4,11.8-11,22-20.9,30.9-5.5,5.1-9.7,7.6-12.6,7.6s-2.2-.4-3-1.3c-1.4-1.3-2-3-1.6-5,.5-1.9,1.7-4.5,3.6-7.7,3.3-5.3,6.3-10.9,8.9-16.8,2.7-5.9,4.5-11.2,5.6-15.9,1.1-4.7,1.1-8,0-9.9-1.1-1.7-4.2-2.9-9-3.6-4.8-.6-10.5-.7-17.1-.3-6.5.5-12.8,1.4-18.8,2.7-3.6.7-6.5.9-8.5.6-2-.2-3.4-1.1-4.2-2.7h-.3ZM427.6,262.1c-12.7,11-27.7,20.4-44.9,28.3-17.2,7.8-35.8,13.8-55.8,17.9s-40.5,6.2-61.4,6.2-48.8-3-72.5-8.9c-23.6-5.8-45.8-14.9-66.6-27.1-20.7-12.2-38.5-27.6-53.4-46.1-3.5-4.4-5.9-8.3-7.2-11.6-.6-1.9-.7-3.5-.4-4.7s.9-2.2,1.7-2.7c1.4-1.1,3.3-1.3,5.5-.6,2.3.8,5.3,2.6,8.9,5.6,25.4,20.6,54.7,35.6,87.8,45.2,33.1,9.7,67.4,14.5,102.9,14.5s56.1-2.9,82.4-8.6c26.3-5.7,48.7-13.4,67.2-23.1,3.8-2,6.8-3.3,8.9-3.9,2.2-.5,4,0,5.5,1.6,1.1,1.3,1.7,2.6,1.7,3.9,0,3.4-3.4,8.2-10.2,14.2h-.1ZM187.7,74.5c-.3,1.1-.9,1.9-1.9,2.2-.9.3-2,.1-3.3-.4-3.3-1.4-6.1-2.5-8.3-3.2-2.2-.8-4.6-1.1-7.2-1.1-5.9,0-10.4,2.2-13.5,6.6-3.1,4.3-4.6,10.6-4.6,18.9v64.9c0,1.1-.3,2-1,2.7s-1.6,1-2.7,1h-23c-1,0-1.8-.4-2.6-1.1s-1.1-1.6-1.1-2.6V50.5c0-1.1.3-2.1,1-2.7.8-.7,1.7-1,2.7-1h18.9c1.1,0,2.1.3,2.7,1,.7.7,1.1,1.6,1.3,2.7l2.9,14.1h1.1c2.6-6.6,6.3-11.6,11.2-15.1s10.6-5.3,17.2-5.3,9.7,1,13.8,2.9c1.1.6,1.7,1.3,1.9,2.2.3.8.2,1.9,0,3.3l-5.5,22.1v-.2h0ZM207.6,166.1c-1.1,0-2.1-.3-2.7-1-.7-.7-1-1.6-1-2.7V50.5c0-1.1.3-2.1,1-2.7.7-.7,1.6-1,2.7-1h23c2.5,0,3.7,1.2,3.7,3.7v111.9c0,1.1-.3,2.1-1,2.7s-1.6,1-2.7,1h-23ZM219.1,37.4c-5,0-9.2-1.6-12.6-4.9-3.4-3.3-5.2-7.6-5.2-12.9s1.7-9.8,5-12.9c3.4-3.3,7.7-4.9,12.8-4.9s9.3,1.6,12.6,4.9c3.4,3.2,5.2,7.5,5.2,12.9s-1.7,9.7-5.2,12.9c-3.4,3.3-7.7,4.9-12.6,4.9ZM259,166.1c-1,0-1.8-.4-2.6-1.1-.8-.8-1.1-1.6-1.1-2.6V50.5c0-1.1.3-2.1,1-2.7.8-.7,1.7-1,2.7-1h18.9c2.2,0,3.5,1.2,4,3.7l2.9,14.1h1.1c2.6-6.7,6.3-11.8,11.2-15.4,4.9-3.5,10.6-5.3,17.2-5.3s13,1.8,18.1,5.5c5.1,3.6,8.9,8.7,11.6,15.2h1.1c4.3-6.9,9.1-12.1,14.3-15.5,5.4-3.4,11.3-5.2,17.9-5.2s13.2,1.9,18.4,5.7c5.3,3.8,9.2,9.3,11.9,16.5,2.8,7.1,4.2,15.4,4.2,25.1v71.2c0,1.1-.3,2-1,2.7s-1.6,1-2.7,1h-23c-1,0-1.8-.4-2.6-1.1-.8-.8-1.1-1.6-1.1-2.6v-68.9c0-7.1-1.3-12.5-4-16.2s-6.5-5.6-11.5-5.6-9.9,2.2-12.9,6.6c-2.9,4.4-4.3,10.8-4.3,19.2v64.9c0,1.1-.3,2-1,2.7s-1.6,1-2.7,1h-23c-1,0-1.8-.4-2.6-1.1-.8-.8-1.1-1.6-1.1-2.6v-68.9c0-7.1-1.3-12.5-4-16.2s-6.5-5.6-11.5-5.6-9.9,2.2-12.9,6.6c-2.9,4.4-4.3,10.8-4.3,19.2v64.9c0,1.1-.3,2-1,2.7s-1.6,1-2.7,1h-23,0ZM427.3,107.2c0-12.1,2.2-23,6.6-32.6,4.5-9.7,10.7-17.2,18.5-22.7s16.8-8.2,26.8-8.2,18.2,2.6,25.7,7.9c7.6,5.3,13.4,12.6,17.5,22,4.2,9.3,6.3,19.9,6.3,31.9v6c0,1.1-.4,2.1-1.1,2.7-.7.7-1.6,1-2.9,1h-65.6c1.4,19.7,8.1,29.6,20.1,29.6s16-5.1,18.4-15.4c.6-2.4,2-3.3,4.3-2.9l21.2,4.7c2.6.6,3.4,2.1,2.6,4.6-3.6,10.6-9.5,18.8-17.5,24.5-8,5.6-17.7,8.5-29,8.5s-19.1-2.6-27-7.7c-7.8-5.2-14-12.4-18.4-21.8-4.4-9.4-6.6-20.1-6.6-32.1h.1ZM497.7,95.2c-.9-9-2.9-15.8-6-20.4-3.1-4.6-7.2-6.9-12.5-6.9s-9.5,2.3-13.1,7c-3.4,4.7-5.7,11.4-6.7,20.2h38.3Z"/>
</svg>