<?xml version="1.0" encoding="UTF-8"?>
<svg id="Layer_1" xmlns="http://www.w3.org/2000/svg" version="1.1" viewBox="0 0 24 12.6">
  <!-- Generator: Adobe Illustrator 29.1.0, SVG Export Plug-In . SVG Version: 2.1.0 Build 142)  -->
  <path d="M20.6,12h-1.8l-3.3-9.2h1.6l2,6c0,.2.3.9.6,2l.3-1,.3-1,2.1-6h1.6l-3.4,9.2ZM15.2,12c-.5.1-1,.2-1.6.2-1.2,0-1.8-.7-1.8-2.1V3.9h-1.1v-1.1h1.1v-1.5l1.5-.6v2.1h1.7v1.1h-1.7v5.8c0,.4,0,.8.2.9.1.2.4.3.8.3s.5,0,.9-.1v1.1ZM7.9,6.6c0,1.8,1.6,2.4,1.6,2.4,0,0-.2.8-.8,1.7-.5.7-1,1.4-1.8,1.4-.8,0-1-.5-1.9-.5s-1.2.4-1.9.5c-.8,0-1.3-.8-1.8-1.5C.2,9.2-.5,6.5.5,4.7c.5-.9,1.4-1.5,2.4-1.5.8,0,1.5.5,1.9.5s1.3-.6,2.2-.5c.4,0,1.5.2,2.1,1.2,0,0-1.3.7-1.3,2.2M6.5,2.3c.4-.5.7-1.2.6-1.9-.6,0-1.3.4-1.7.9-.4.4-.7,1.1-.6,1.8.7,0,1.3-.3,1.7-.8Z"/>
</svg>