<svg xmlns:dc="http://purl.org/dc/elements/1.1/" xmlns:cc="http://creativecommons.org/ns#" xmlns:rdf="http://www.w3.org/1999/02/22-rdf-syntax-ns#" xmlns:svg="http://www.w3.org/2000/svg" xmlns="http://www.w3.org/2000/svg" width="276.83811923630583" height="361.2219309821317" viewBox="0 0 52.916664 68.929764" version="1.1" id="svg29">
  <defs id="defs23"/>
  <metadata id="metadata26">
    <rdf:RDF>
      <cc:Work rdf:about="">
        <dc:format>image/svg+xml</dc:format>
        <dc:type rdf:resource="http://purl.org/dc/dcmitype/StillImage"/>
        <dc:title/>
      </cc:Work>
    </rdf:RDF>
  </metadata>
  <g id="layer1" transform="translate(-281.97024,-42.642261)">
    <path d="m 331.86125,105.26862 c 0,0 -5.0355,-8.096017 -3.93188,-15.978534 1.0105,-7.286276 6.80404,-14.339933 6.95522,-24.849249 0.14021,-10.505777 -6.13025,-17.161466 -11.16044,-19.671069 -5.03018,-2.520933 -23.86849,-4.339758 -31.73755,3.862834 0,0 -3.45,2.868978 -3.94073,9.689661 -0.0984,1.392178 -0.49002,1.716146 -0.73893,3.525057 -0.26236,1.955848 0.49569,2.466053 0.24359,3.780338 -0.87559,4.467928 -6.31295,8.199051 -5.49719,11.241166 0.48047,1.757217 2.74612,1.312868 3.18764,2.06065 0.44753,0.736454 -0.31052,3.378477 -0.27192,3.704214 0.0496,0.464177 0.29175,1.187884 1.03103,1.774214 0,0 -1.57983,2.520225 0.56792,4.031369 0,0 -2.62963,3.815389 -0.24678,6.852547 1.88999,2.416135 10.60491,2.972723 12.97147,3.570377 2.37116,0.594471 5.05426,4.779865 5.50144,10.252265 0.44152,5.47241 21.88574,0.73893 27.06711,-3.84584 z m -19.26,-41.759326 h -1.58515 v 4.446331 c 0,0.747075 0.13242,1.39395 0.39797,1.9385 0.26484,0.545258 0.64086,0.95845 1.12628,1.240284 0.48613,0.281835 1.0459,0.4224 1.67932,0.4224 0.67414,0 1.25055,-0.14269 1.72925,-0.428064 0.47869,-0.285375 0.84479,-0.700691 1.09866,-1.245243 0.25421,-0.544904 0.38132,-1.194965 0.38132,-1.949829 v -4.424379 h -1.58549 v 4.446331 c 0,0.427001 -0.0659,0.79452 -0.19792,1.101847 -0.13278,0.307682 -0.3222,0.542425 -0.56828,0.704586 -0.24643,0.161809 -0.53286,0.242536 -0.86037,0.242536 -0.3307,0 -0.61855,-0.08427 -0.86285,-0.25422 -0.24431,-0.168886 -0.43125,-0.409297 -0.55978,-0.720165 -0.12888,-0.311576 -0.19296,-0.676616 -0.19296,-1.096536 z m -13.65305,0 h -3.63447 v 7.920404 h 3.60119 c 0.56366,0 1.05865,-0.09843 1.48635,-0.295289 0.42665,-0.196858 0.75522,-0.486129 0.98572,-0.8671 0.23014,-0.381328 0.34521,-0.846214 0.34521,-1.394659 0,-0.283959 -0.0474,-0.538885 -0.14092,-0.76513 -0.0938,-0.226602 -0.22589,-0.419566 -0.39478,-0.580311 -0.1696,-0.159684 -0.36079,-0.287853 -0.57429,-0.383804 0.26484,-0.162162 0.4702,-0.374601 0.61536,-0.63767 0.14552,-0.263069 0.21846,-0.564377 0.21846,-0.903216 0,-0.445412 -0.10091,-0.82603 -0.30379,-1.140793 -0.20288,-0.314763 -0.49427,-0.552339 -0.8756,-0.712376 -0.38097,-0.160391 -0.8239,-0.240056 -1.32844,-0.240056 z m 27.44205,7.920404 -1.51893,-3.076105 c 0.50808,-0.198983 0.88835,-0.490024 1.1408,-0.87312 0.25209,-0.382743 0.37813,-0.869227 0.37813,-1.458035 0,-0.408943 -0.069,-0.770796 -0.20712,-1.085559 -0.13844,-0.314762 -0.33141,-0.577832 -0.58031,-0.789916 -0.24856,-0.211729 -0.53854,-0.370704 -0.86923,-0.477632 -0.33211,-0.106927 -0.68936,-0.160037 -1.07175,-0.160037 h -3.6897 v 7.920404 h 1.58515 v -2.850212 h 1.59611 l 1.41378,2.850212 z m -20.89471,-7.920404 h -1.58479 v 7.920404 h 5.55668 v -1.562836 h -3.97189 z m -6.52539,6.418113 h -2.1042 v -2.048966 h 2.1042 c 0.75486,0 1.13265,0.338484 1.13265,1.016161 0,0.32043 -0.096,0.572522 -0.2875,0.756635 -0.1912,0.184113 -0.47303,0.27617 -0.84515,0.27617 z M 323.6282,65.05018 c 0.75487,0 1.13301,0.335298 1.13301,1.005186 0,0.688654 -0.37814,1.033159 -1.13301,1.033159 h -2.07091 V 65.05018 Z m -24.67292,1.425106 h -2.08933 v -1.496627 h 2.00683 c 0.65042,0 0.9758,0.251031 0.9758,0.753801 0,0.494981 -0.29777,0.742826 -0.8933,0.742826 z" style="clip-rule:evenodd;fill:#000000;fill-rule:evenodd;stroke-width:0.354063;stroke-linejoin:round;stroke-miterlimit:1.41421" id="path2"/>
  </g>
</svg>