<?xml version="1.0" encoding="UTF-8"?>
<svg id="Layer_1" xmlns="http://www.w3.org/2000/svg" version="1.1" viewBox="0 0 697 402">
  <!-- Generator: Adobe Illustrator 29.1.0, SVG Export Plug-In . SVG Version: 2.1.0 Build 142)  -->
  <path d="M318.3,270.4c.4,0,.4,0,.8.1,6,.8,11.9,1.9,16.4,3.9,4.2,1.8,6.6,4.2,8.9,8.4,3.4,6.3,3.6,15.2.6,21.9-2.3,5-7.3,9.2-12,11.4-4.8,2.3-9.5,3.4-14.9,4-9.5,1-19.7-.9-28.2-5-5-2.5-11.2-6.7-14.3-12.1-2.3-4-2.2-9.2.6-13,4.4-6.1,13.9-7.4,21-7.1,5.4.2,15.2,1.9,20.4,3.7,1.4.5,6.7,2.6,7.6,3.5.6.7,1.1,1.6.8,2.5-1.2,3.6-10,5.5-12.5,5.9-6.8,1-10.3-1.5-18-4.6-1.9-.7-4.5-1.6-6.4-1.8-3.5-.3-7.7.6-8.4,4.5-.3,2,2,3.8,3.7,4.6,4.1,1.8,7.5,2.4,11.6,2.5,12,.2,25.5-1.8,35.4-8.7,1.3-1,2.7-2.4,2.7-4.1,0-3.6-6.2-5.8-6.2-5.8-6.6-2.8-18.9-4.1-25.2-4.6-6.6-.6-17-1.4-19.5-1.8-2.6-.4-5.4-.9-7.6-1.9-2.2-1-4.4-3.3-5.1-5.8-1.2-4.5.3-10.1,2.8-13.7,6.6-9.4,22-13,33.5-14.5,11.1-1.4,29.1-1.4,40,4.4,1.7.9,2.5,1.7,2.2,3.6-.7,3.4-3.3,5.6-6.3,6.5-3.2,1-9.9,1.4-12.9,1.6-13.2.7-29.1.4-41.7,3.8-1,.3-2.7.7-3.2,1.4-2,2.1,3.6,2.7,4.8,3,.4,0,.4,0,.8.1l27.7,3.3M239.9,211.6s2.1-3.2,3.9-5.7c3.3-4.4,9.2-10.6,13.6-14.4,1.4-1.2,3-2.5,3-2.5,0,0-2.5.3-3.9.6-3.4.7-8.3,4-10.8,6.1-4.1,3.5-8.6,9.2-6.5,14.2.3.7.7,1.7.7,1.7M262.6,217.7c6.5-.4,12.5-2.3,18.1-5.4,5.5-3.1,13.6-9.1,12.8-16.2-.3-2.3-1.8-4-3.7-4.8-2.5-1.1-3.7-.9-6.9,0-2.3.7-3.3,1.1-5.5,2.3-6.3,3.7-15.3,11.6-20.2,17.8-1.1,1.5-2.3,3.1-3.2,4.3-.6.7-1,1.3-.9,1.5.2.7,6.9.6,9.4.5M246.2,229.8c-.7.7-1.4,2.4-2.1,3.6-.4.7-1.1,1.5-1.6,1.8-1.7,1.2-3.1,1.3-4.7-.1-2.3-2-3.6-5.1-3.7-8.2,0-1.3.2-2.8,0-3.9-.4-1.9-2.3-3.8-3.3-5.6-1.2-2.1-2.2-5.8-2.3-8.2-.4-7.4,3.5-14.3,8.6-19.7,5.1-5.5,11.8-10,19.1-13.1,6.9-2.9,17-4.9,24.6-2.3,2.5.8,5.9,2.9,7.6,5.1.4.5.7.9,1,1.2.3.2,1.2.3,1.9.4,2.4.4,5.9,2.2,7.3,3.5,2.9,2.5,4.4,4.8,5.1,8.2,1.5,6.9-2.5,14.4-7,19-7.7,7.9-15.3,13.4-25.2,17.3-4.3,1.7-11.1,3.3-16,2.8-1.5-.1-3.1-.5-4.6-.6-.8,0-3.5-.8-3.8-1-.4-.3-.8-.5-.9-.4M255,245c.3,0,.8.2,1.2.3,3.5,1.3,4.9,4.5,5.7,8,2,8.2,2.8,26.2,3.1,33.3.2,5.3.4,10.5.6,15.8.2,4.4.5,10.4-.4,14.5-.3,1.5-1.3,3.2-2.8,4.1-1.6,1.1-5.4,1.1-7.4.7-5.1-1-6.7-4.3-7.4-9.3-1.7-12-.9-35.4.1-45.3.3-3.3,1.6-13.8,3.3-18.1.6-1.5,1.8-4.5,4-4M100.8,264.9s-7.5.5-12.7,1.1c-6.6.7-19,2.9-26.2,5.4-2.1.8-6.5,2.6-6.9,4.8-.4,2.3,1,4.1,2.6,5.9.9,1.1,6.1,6.1,7.5,7.3,6.1,5.1,18.4,12.9,27.5,16.7,3.1,1.3,8.3,3.1,8.3,3.1,0,0-.4-14.7-.3-29.2,0-7.6.2-15.2.2-15.2M239.1,270.8c.4,3.9-.6,11.4-.8,12.4-.3,2.3-2,7.5-2.3,8.1-1.4,3.2-2.7,5.8-4.2,8.4-2.5,4.5-8.4,11.5-11.8,14.5-13,11.2-33.1,17.6-50.3,19.7-11.7,1.4-25.1,1.2-37.5-1.1-4.3-.8-10.6-2.2-10.6-2.2,0,0,0,2.5-.2,4.3,0,.8-.7,3-1.1,3.7-.9,1.9-2.4,2.8-4.5,3.2-2.6.5-5.4.6-7.8-.4-3.9-1.7-5.4-5.3-6-9.6-.6-3.4-1.1-9.3-1.1-9.3,0,0-2.9-1.4-5.4-2.6-7.5-3.7-14.7-8.2-21-12.9-1.7-1.3-9.2-7.6-10.9-9.1-4.6-4.4-8.8-8.8-11.9-14.4-2.5-4.4-3.2-8.3-1.3-12.9,2.6-6.5,11.8-11.3,18.2-14.1,4.7-2.1,19.1-6.8,25.1-7.7,2.8-.4,7.2-1.2,7.5-1.4.1,0,.2-.2.3-.2.1-.2.4-6.6.3-8.9,0-2.3,1.7-17.4,2.3-20.6.3-1.7,1.6-8.4,2.9-10.1.9-1.2,2.4-1.1,3.7-.3,6.9,4.3,9,19.2,9.5,26.7.3,4.6.5,11.5.5,11.5,0,0,7.9-.2,12.8,0,4.7.1,9.9.9,14.8,1.6,6.3,1,18.5,3.7,25.6,7.2,5.8,2.9,11.2,7.9,13,13.1,1.6,4.8,1.4,8.1-1.1,12.4-2.8,4.9-8.1,8.5-13.4,8.8-1.6,0-7.6-.7-9.4-2.1-.7-.6-.7-1.6-.2-2.3.2-.2,3-1.7,4.7-2.6.8-.4,1.5-.9,2.2-1.5,1.4-1.2,2.6-2.5,2.5-4.1-.2-2-2.3-3.3-4.4-4.1-9.6-3.8-28.7-7-38-7.5-3.6-.2-8.8-.4-8.8-.4l1.1,51.1s4.3.8,7.6,1.4c1.9.3,10.1,1,12.3,1.1,16.5.4,34.9-1,50.1-8.2,6.7-3.1,12.8-7,17.4-12.3,6.1-7,9.3-16.5,8.4-26.5-.9-10.9-8.6-23.8-14.7-31.7-16.2-20.8-43.9-37.9-68.3-48-24.9-10.2-49.5-16.1-76-17.1-6.8-.3-21.7,0-29.2,2.2-1.1.3-2.2.7-3.2.9-.8.2-2,.7-2.4,1-.1.1-.3.2-.4.4,0,0,.5.3.9.4.8.3,4.1.6,5.9.9,1.6.3,3.2,1.1,3.8,2.2.6,1.1.7,1.9,0,2.8-1.7,2.1-8.1,1.7-10.9,1.3-2.9-.5-6.6-1.4-7.3-3.9-.8-3,.7-6,2.2-8.7,3.1-5.5,7.5-8.3,14-10.1,9.2-2.5,20.9-4.3,29.6-4.7,19.7-.7,38.4,2.7,57.6,8.5,10.9,3.3,25.3,8.9,35.8,13.9,7.5,3.6,19.4,10.3,26.1,14.7,2.1,1.4,14.4,10.4,16.3,12,4,3.3,9.2,7.9,13,11.7,7.3,7.2,16.4,18.3,20.8,27.1,1.1,2.1,1.9,4.2,3.3,6.6.5.8,2.5,5.8,2.8,7.3.3,1.4.8,3.5.9,3.6,0,.8,1,5.1,1,6.7M487.4,259.5c-9.2,2.1-33.6,3.3-33.6,3.3l-3.1,9.6s12.2-1,21-.1c0,0,2.9-.3,3.2,3.3.1,3.3-.3,6.9-.3,6.9,0,0-.2,2.2-3.3,2.7-3.3.6-26.2,1.4-26.2,1.4l-3.7,12.5s-1.4,2.9,1.7,2.1c2.9-.8,26.8-5.3,29.9-4.6,3.3.8,7,5.3,6,9.3-1.3,5-25.2,20.3-39.7,19.2,0,0-7.6.5-14.1-9.8-6-9.8,2.3-28.5,2.3-28.5,0,0-3.8-8.7-1-11.6,0,0,1.6-1.5,6.4-1.8l5.9-12.1s-6.7.5-10.6-4.4c-3.7-4.7-4-6.8-1.2-8.1,3-1.5,30.8-6.6,49.9-5.9,0,0,6.6-.7,12.4,10.9,0,0,2.8,4.7-2,5.8M415.4,306.1c-2.5,5.8-8.9,11.9-17,8.1-7.9-3.8-20.6-29.7-20.6-29.7,0,0-4.8-9.7-5.7-9.4,0,0-1-1.9-1.7,8.7-.7,10.5.1,31-4.1,34.2-4,3.2-8.8,1.9-11.3-1.8-2.3-3.7-3.2-12.6-2-28.1,1.5-15.6,5.1-32.1,9.7-37.3,4.6-5.1,8.3-1.4,9.8,0,0,0,6.2,5.6,16.3,22l1.8,3s9.2,15.5,10.2,15.5c0,0,.8.7,1.4.2,1-.3.6-5.2.6-5.2,0,0-1.9-16.9-10.3-45.5,0,0-1.3-3.6-.4-6.9.9-3.4,4.2-1.8,4.2-1.8,0,0,13.1,6.6,19.4,27.8,6.3,21.3,2.1,40.5-.4,46.3M556.1,293.3c-5.9,10.4-22.7,32.1-45.1,27-7.4,17.9-13.6,35.9-17.1,63,0,0-.8,5.3-5.1,3.4-4.3-1.5-11.5-8.7-12.9-18.7-1.6-13.1,4.3-35.2,16.2-60.5-3.5-5.6-5.8-13.7-3.8-25.2,0,0,3-21.3,24.4-40.5,0,0,2.6-2.2,4.1-1.5,1.6.7.9,7.6-.4,11-1.4,3.4-10.9,19.9-10.9,19.9,0,0-5.9,11.1-4.3,19.9,11.2-17.3,36.8-52.1,52.6-41.1,5.3,3.8,7.8,12.1,7.8,21,0,7.8-1.9,16.1-5.4,22.4M551.4,266s-.9-6.9-7.6.7c-5.8,6.4-16.2,18.3-24.6,34.6,8.8-1,17.3-5.8,19.8-8.2,4.2-3.7,13.9-13.7,12.3-27.1M679,264.4h-40.9c-.8-13.9-2.5-27.4-5.1-41.4-.3-1.4-1.5-2.5-3-2.5h-9.4c-.8,0-1.6.4-2.1,1-.5.6-.7,1.5-.6,2.3,2.7,13.5,4.4,26.8,5.2,40.6h-39.3c-1.8,0-3.3,1.5-3.3,3.3v8.5c0,1.8,1.5,3.3,3.3,3.3h39.9c0,2.1,0,4,0,5.7,0,12.3-.5,22.4-1.8,33.7,0,.9.2,1.8.8,2.4.6.6,1.4,1,2.3,1h8.7c1.7,0,3.1-1.3,3.3-3,1.2-11.5,1.7-21.7,1.7-34.2s0-3.6,0-5.7h40.3c1.8,0,3.3-1.5,3.3-3.3v-8.5c0-1.8-1.5-3.3-3.3-3.3"/>
  <path d="M132.1,150.5c-.6.9-.7,1.9-.4,2.9.3,1,1.1,1.7,2.1,2.1l7.3,2.5c.4.1.9.2,1.3.2,1.4,0,2.6-.7,3.4-1.8,24-35.3,56.5-64.7,94-84.9,38.7-21,82.5-32,126.8-32s105,15.8,149.2,45.6c43.1,29.1,76.5,69.7,96.7,117.4.6,1.4,2,2.4,3.5,2.3h8.8c1,0,2-.5,2.5-1.4.6-.8.7-1.9.3-2.9-20.8-51.3-56.1-95-101.9-126.4-46.9-32.2-101.9-49.2-159.1-49.2-94.5,0-182.2,46.9-234.5,125.6"/>
</svg>