<?xml version="1.0" encoding="UTF-8"?>
<svg id="Layer_1" xmlns="http://www.w3.org/2000/svg" version="1.1" viewBox="0 0 2500 899">
  <!-- Generator: Adobe Illustrator 29.1.0, SVG Export Plug-In . SVG Version: 2.1.0 Build 142)  -->
  <defs>
    <style>
      .st0 {
        fill: #fff;
      }

      .st0, .st1 {
        fill-rule: evenodd;
      }
    </style>
  </defs>
  <path class="st1" d="M616,611.3l56.9-18.2-48-45-19.1,57.8,10.2,5.5h0ZM2243.1,682.2h-28.9s-51.5-50.1-51.5-50.1h-14.5v28.2l31.6,32.9v45.8l34,37,.2-50.2s29.2,5.7,29.2-28.7v-14.9h0ZM1618.2,398.9l-42.9-.4-39.7-40.5v86.7l53.5,54.9v-44c0,0,29.1,7.7,29.1-26.7v-30h0ZM2004.6,181.2c-29.5,0-38.2,12.8-41.1,29.4l2,189.5,39.1.2v-219.1h0ZM1138.8,271.4c-4.2,10.6-1.6,27.1,9.6,46.3l17.9.5s14.3,7.6,4.2-18.6c0,0-19.7-18.6-31.8-28.2h0ZM1375.5,267.3h-31.4s-72.6-72.7-72.6-67.4v31.8l15,8.7c20.2,13.5,33.3,23.2,47.2,43.3,0,0,32.2,31.7,41.9,40.5v-56.8h0,0ZM867.9,299.2h-28.7l-78.2-66.6v94.3h66.2l30.8,36,9.9-63.7h0ZM479.1,181.2c-14.8.7-26.3,12.8-29.1,29.4l2,356.8c9.4,9.4,18.2,1.6,27.1-9V181.2ZM280.1,183.3l-4.9-.8c-13-2.1-21.2,7.2-23.2,21l.4,400c9.9,6,14.9-6.1,14.9-48.5l12.8-15.2c.2-123.2.1-283.3,0-356.5h0ZM1119.3,92.1c15-25.2,41.8-37.3,61.2-42.9,33.7-9.6,67.4-5.6,88.4,12.8v-5.3l662.5.3,43.1,50.9v-50.9l147.4-.3,83.5,83.3,19.5-83.3h171.7l66.6,66.6v48.6l-5.5.3c-19.7,1.1-26.4,11.3-26.4,20.6v569.4l31,25.2v56h-181.6l-33.6-31.4-13.4,17.7-98.1-.7s-15.6,20.5-29.6,20.1c-12.6-.4-26.8-17.9-26.8-17.9l-420.4-1.1s-37.6,24.1-64.5,24.8c-29.2.7-70.4-25.4-70.4-25.4l-.6,23.6h-131.6l-31.9-24.8s-25.5,25.3-46.2,26.5c-23.5,1.4-53.9-27.1-53.9-27.1l-3.6,26-124.9-.6-28.3-26s-40.7,28.7-69.8,27.1c-25-1.3-58.7-25.6-58.7-25.6,0,0-326.9-.1-415.1,0,0,0-13.4,32.9-36.8,21.5-33.8-16.5-66-58.8-71.7-60.3-4.7-1.2-58.3,30.8-58.3,30.8v20.6H103.3l-66.6-66.6v-45.1l4.4-1.1c2.2-.5,23.4-6.6,23.4-17.5V138.2l-27.8-35.1v-46.4h178.6l33.8,32.6v-32.5h176.4l23.6,27.3v-27.3h138.2l22.5,26.6c21.9-21.9,54.6-37.3,86.3-37.3s44.7,5.2,54.7,13.5v-2.7h83.9l33.9,40.1v-40.1h218.8l31.9,35.4h0Z"/>
  <path class="st0" d="M1722.9,636.1c4.2-8.1,16-3.3,15.1,4.9-.5,4.4-4.1,7-6.6,7-86.4,0-120.8,0-131.2,0-15.8-19.1-39.3-30.2-64-30.2-46.1,0-83.4,37.3-83.4,83.4s37.3,83.4,83.4,83.4c24.6.1,48-10.6,64-29.3h443.3c3.2,0,6.8,3.1,6.8,8.5,0,8.3-7.7,10.2-13.7,6.9-15.1-8.4-16.6,21.7,9.7,16.7,11.6-2.2,19.4-11.8,19.4-23.5,0-11.6-8.4-23.9-22.2-23.9h-447c-9.6,0-20,29.3-60.3,29.3s-68-30.5-68-68,30.4-68,68-68,50.5,30.2,60.3,30.2c0,0,26.7,0,135,0,28.5,0,29.5-45.7-.5-46.8-9.1-.3-16.8,3.1-21.6,12.4-4.7,9.1,9,16.2,13.7,7.1h0ZM1945.5,693.5h-393.8c-4.2-8.6-14.7-12.2-23.3-7.9s-12.2,14.7-7.9,23.3,14.7,12.2,23.3,7.9c3.4-1.7,6.2-4.5,7.9-7.9h393.8c10.3,0,10.3-15.4,0-15.4h0ZM780.7,636.1c-4.2-8.1-16-3.3-15.1,4.9.5,4.4,4.1,7,6.6,7,86.4,0,120.8,0,131.2,0,15.8-19.1,39.2-30.2,64-30.2,46.1,0,83.4,37.3,83.4,83.4s-37.3,83.4-83.4,83.4c-24.6.1-48-10.6-64-29.3h-443.3c-3.2,0-6.8,3.1-6.8,8.5,0,8.3,7.6,10.2,13.7,6.9,15.1-8.4,16.6,21.7-9.7,16.7-11.6-2.2-19.4-11.8-19.4-23.5,0-11.6,8.4-23.9,22.2-23.9h447c9.6,0,20,29.3,60.3,29.3,37.6,0,68-30.5,68-68,0-37.5-30.4-68-68-68-40.2,0-50.4,30.2-60.3,30.2,0,0-26.7,0-135,0-28.5,0-29.5-45.7.5-46.8,9.1-.3,16.8,3.1,21.6,12.4,4.7,9.1-9,16.2-13.7,7.1h0ZM558,693.5h393.8c4.2-8.6,14.7-12.2,23.3-7.9s12.2,14.7,7.9,23.3-14.7,12.2-23.3,7.9c-3.4-1.7-6.2-4.5-7.9-7.9h-393.8c-10.3,0-10.3-15.4,0-15.4h0ZM1596.8,462.6v44.5c57,4.7,110.3,16.6,159.8,35.6v-49.8c-20.6-1.8-30.6-12.4-29.9-32V126.3c0-17.2,7.2-27.3,21.6-30.2v-33.6h-145.4v43.4c11.7,0,19.2,8.6,22.7,25.8v302.5c-4.1,21.9-13.8,31.4-28.9,28.5h0ZM1350.3,432.4v44.5l152.6,8v-37.4c-20.6-3-30.2-15.7-28.9-38.3v-114.8c24.8,1.2,38.2,11.6,40.2,31.1h51.6v-114.8h-54.7c4.1,21.4-8.3,31.7-37.1,31.1v-121c46.1-4.2,66,18.1,59.8,66.7h62.9V62.5h-246.4v43.4c20.6,4.8,30.9,15.1,30.9,31.1v266.1c-6.2,19.6-16.5,29.4-30.9,29.4h0ZM1117.8,325.6v151.3l58.9-.2v-15.1c84.9,51.1,158.6-10.5,158.6-58.1v-75.5c0-93-121.3-90.3-121.3-157.3v-23.4c0-43.6,56.6-40.9,56.6,2.7v44.9h66.5V62.5h-62.5v8l-6.2-.9c-18.6-19.3-51.8-24.7-86.4-14.8-27.6,7.9-68.3,28.8-68.3,81.3v64.3c0,83.6,127.2,101.6,127.2,142.5v45.8c-25.2,38.2-67,22-66.1-21.6v-42.6l-57.1,1.1h0ZM593.1,118.3v379.9c5,28.8,49,62.4,82.5,62.3,108.2-.2,135.6-30.2,152.3-83.6v-144.1h-71.2v136.2c-32.3,32.1-57.7,12.8-68-12.7V135.9c20.4-37.6,46.5-37.6,68,1.1v89.9h72.3V62.5h-72.3v12.9c-7.6-13-19.8-23.7-60.5-23.7s-90.7,32.2-103.1,66.6h0ZM254.9,62.5h164.9v35.8c-22-3.6-38.8,12.9-42.2,34.3l2,389.8c4.1,39.1,17.7,61.4,40.8,66.7,23,5.3,44.5-4.2,64.4-28.5V159.2c0-39.2-10-64.6-29.9-61v-35.8h126.7v35.8c-22.7-3.6-33.2,16.8-31.2,45.9v416.4c-30.2,86-96.2,121.3-188.3,105.9,0,0-8.6-3.3-14.6-12.5,1.3-16.5,6-72.6,4.4-85.6-2-16.2-20.7-21.9-20.7-21.9,0,0-26.9-8.7-45.2,1.9l-.2-1.9c.3-160.3,0-409.4,0-409.4,0-16-10.3-34-30.9-38.7v-35.8h0ZM42.5,734.2v34.7h273.2s6.1-25.3,9.4-66.7c8.5-108.2,20.3-145.1,5.3-153.2-22.7-12.2-60.4-8-62.6,35.4-6.9,132.2-30,131.3-87.7,133.4l-.5-592.5c2.1-15.4,12-29.2,29.9-26.3v-36.7H42.5v35.8c24,4.1,33.3,34.3,27.8,75.2v537.6c0,16.4-27.8,23.1-27.8,23.1h0ZM1765.8,500v45.4c118.9,27.9,223.4,68.5,313.4,121.9,0,0,18.2,14.8,27.2,4v-45.4c-20.6,0-29.6-18.5-29.6-42.8v-321.2l70.5,344.9c5.4,28.1,22.5,21.8,27,1.2l73-343.7-1,419.7c0,37.3-5.1,46.3-26.4,49.8v37.4h170.1v-44.5c-13.1,0-31-2.7-31-31V126.2c0-13,9.9-25.2,31.9-26.4v-37.4h-161.3l-58.6,263.1-53.8-263.1-136.9.3v39.2c16.5-.6,26.8,11.3,30.9,26.1v281.2h-44.3c-5.5,64.6-19.6,102.3-42.3,113h-23.2V137c0-24.2,5-34.2,24.2-35.9v-38.3h-159.8v39.2c20.6-4.2,30.9,13.1,30.9,42.1v314.7c0,57-30.9,41.2-30.9,41.2h0ZM2002.2,529.3c4.2-21.4,9-55.3,9-55.3l-1,77.7c0,26.5-17,18.9-17,18.9,0,0,5.9-25.1,9-41.3h0ZM826.8,479.5v45.4l107-25.5v-43.6s-22.5,3.1-20.5-12.8c3.6-27.9,13.5-77.7,13.5-77.7h58.9s2.7,22.5,7.2,55.3c2.7,19.8-5.1,29-21.6,27.9v44.5l142.4-16-2.2-49.1c-20.6,0-22.8-28.2-26.5-49.9-12.6-74.1-27.2-148.5-37.7-243.6-3.6-32.3,10.4-34.4,34.4-35.6v-36.2h-207.3v43.4c15.8-2.4,20.8,5,24.9,22.2l-46.4,310.5c-3.4,23.1-8.2,38.5-26.1,40.9h0ZM955.6,177.9l18.2,121.3h-37.1l18.9-121.3h0ZM356.7,728.7c600.9-327.2,1244.3-298.4,1816.9,14.6,18,9.8,3.2,36.8-14.8,27-564.1-308.4-1196.4-336.4-1787.4-14.6-18,9.8-32.7-17.2-14.7-27h0ZM1295.3,661.1s.6,53.8.6,82.8,7.5,31.8,23.5,34.1c49,6.9,37.4-11.7,49-11.2,14.8.7-13.5,14.2,69.9,14.2,22.9-31.3-18.9-11-18.9-50.6v-148.3s.5-26.2-4.4-27c-18.2-2.7-65.1-7.6-69.2,4-1.3,16.9,28.2,20.4,28.2,37.8v29.8c-19.1-22.7-78.8-18.9-78.8,34.3h0ZM1342.5,652.9c0-11.7,29.9-13.4,29.9-1.8v82.5c0,12-29.9,19.1-29.9,7.1v-87.9h0ZM1174.1,618.8v25h32c0,85.4-9.4,136,29,136s41.5.7,54.6-8.8v-22.2c-19.2,9.5-38.2,12.1-38.2-20.2v-84.7h31.9v-25h-31.9s.3-18.2.3-36.6-45.7,5.2-45.7,5.2v31.4h-32s0,0,0,0ZM1074.4,762.4c-5.8,4.5-9.4,18.3,6.9,18.3h109.2c0-28.3-1.3-46.8,5.9-74.5,4.5-16.9-31.7-11.7-31.5-5.8,1.5,39.7-14.7,66.9-24.6,51-3.7-6-2.5-17.9-2.5-17.9v-145s2.9-6.4,11.9-16.3c3.5-3.9.4-18.2-4.5-17.9-14.2,1.1-43.2,4.9-71,8.4-6.4.8-5.7,14.7.7,16,9.7,1.9,12.7,16.8,12.7,16.8l-.5,137c0,20.9-6.4,24.8-12.9,29.8h0Z"/>
  <path class="st1" d="M274.1,85c18.9,10.1,31,30.5,31,51.9v20.2s0,20.1,0,20.1v50.3s0,50.3,0,50.3v63.5s0,67.2,0,67.2v67.2s0,63.3,0,63.3c0,5.1-7.7,5.1-7.7,0v-63.3c0,0,0-67.2,0-67.2v-130.7s0-50.3,0-50.3v-50.3s0-20.2,0-20.2v-20.1c0-19.4-11.3-37.7-28.8-46.1-.9-.4-2.2-2.5-2.2-3.5v-9.5c0-2.1,1.8-3.8,3.8-3.8h134.1c2,0,3.8,1.8,3.8,3.8v5.3c0,4.3-7.8,4.8-10.7,5.9-17.1,6.7-28.4,23.7-31.3,41.4l-.2,2.2,2.1,390.2c4.3,40.7,22,83.6,70.7,78.8,22.5-2.2,41-16.9,54.9-33.9.1-.2.1-.4.3-.7l.5-1.4.6-1.5.5-1.5.4-1.4.2-.9V159.2c0-21.9-2.9-61.3-27.4-71-1-.4-2.4-2.5-2.4-3.6v-6.8c0-2.1,1.8-3.8,3.9-3.8h95.9c2,0,3.8,1.8,3.8,3.8v5.6c0,4-7.9,5.2-10.7,6.7-17.7,9.9-21.7,36-20.5,54.3v413.3l-.2,1.3c-29.2,80.1-90.1,109.3-172.4,96.2-1-.2-1.9-.7-2.7-1.3l-1-.7-1.2-.9-1.4-1.1c-1.9-1.6-3.8-3.3-5.5-5.1-4.3-4.3,1.7-8.9,7.3-3.6.6.6,1.1,1.1,1.6,1.5l1.4,1.2,1.2,1,1,.7.8.6.4.3c78,12.2,135.1-14.9,162.9-90.8V144.7c-1.6-25,6-58.3,34.1-65l-3,3.8v-5.6l3.8,3.8h-95.9l3.8-3.8v4.2c26.2,12.8,29.9,51.8,29.9,77.1v401.3c0,1-.3,2-.6,3l-.5,1.5-.6,1.7-.6,1.7-.6,1.5c-4.6,11.1-28.4,28.5-39.6,33.5-37.8,16.8-75.3.3-91-37.4-5.7-13.6-8.5-28.2-10.1-42.7l-.3-49-1.6-292.9-.3-49v-.8s.1-1.3.1-1.3v-.8c3.9-23.8,20.6-45.6,45.2-50.2l-3.1,3.8v-5.3l3.9,3.8h-130.2v3.3h0,0ZM925.2,300.3c.3,6.4,5.3,10.5,11.6,10.5h37.1c16.6,0,10.6-19,9.1-28.4-2.1-14-14.9-106.3-17.7-111.8-1.9-3.7-5.4-6.5-9.7-6.6-12.8,0-12.6,19.7-13.8,27.2l-16.5,106.2c-.1,1-.2,1.9-.1,2.8h0ZM917.5,300.6c-.4-8.3,3.6-25.9,5-34.7,2.2-14.4,12.9-91.5,16.6-98.9,3.2-6.3,9.4-10.7,16.6-10.7,18.6,0,19.3,20.6,21.3,33.8l16,106.2c1.8,12.1-6.8,22.1-19,22.1h-37.1c-10.4,0-18.7-7.3-19.2-17.8h0ZM2073.6,653c-9.2-4.2-21.4-9.8-33.5-15.3l-33.3-15.1c-22.4-10.2-17.8-4.9-15.6-29.4.2-2-.2-8.4,3.2-9.5,28.9-9.5,23.8-12.8,25.4-40.1l.7-103.7,2.2-311.5-.5-3.6c-4-14.2-13.4-27.4-27.8-32.3-1.2-.4-2.6-2.4-2.6-3.6v-10.6c0-2,1.8-3.8,3.8-3.8h27.3c0,0,27.2-.1,27.2-.1h27.3c0,0,27.2-.1,27.2-.1,1.5,0,3.5,1.6,3.8,3.1l51.3,250.8c3.2,15.6,19.1,15.8,22.6.2l55.9-251.1c.3-1.4,2.3-3,3.7-3h133.6c2.1,0,3.9,1.8,3.9,3.8v9c0,4.3-10.2,6-15.1,9.1-10.6,6.8-16.8,17.6-16.8,30.2v569.4c0,20.1,7.6,35.9,28.1,40.9,1.4.3,2.9,2.3,2.9,3.8v15.5c0,2.1-1.8,3.8-3.9,3.8h-139.4c-2.1,0-3.8-1.8-3.9-3.8v-10.1c0-5.3,15.1-5.2,21.8-23,4.3-11.5,4.6-26.5,4.6-38.6l.3-104.9.3-104.9.3-104.9.3-104.9c0-16.5-19.4-18.5-22.8-2.4l-71.3,335.7c-1,4.9-6.5,4.9-7.5,0l-69.1-337.8c-3.3-16.1-22.9-14.1-22.9,2.3v321.2c0,19.8,6.3,44.6,27.1,52.1,1.1.4,2.6,2.4,2.6,3.6v18c0,3.8-6,3.2-6,3.2,0,0-5.8-2.7-15.4-7h0ZM2087.2,650.7v-9.3c-22.2-9.7-29.6-36-29.6-58.3v-321.2c0-25.7,32.9-29,38.1-3.9l65.4,319.8,14-65.9,53.4-251.7c5.3-25.1,38.1-21.6,38.1,4l-.3,104.9-.3,104.9-.3,104.9-.3,104.9c0,24.3-.9,52.7-26.4,64.2v3.8h131.6v-8.7c-22.3-6.8-31-25.2-31-47.6V126.2c0-20.4,13.1-35.8,31.9-42.2v-2.3h-126.7l-13.3,59.8-41.9,188.3c-5.2,23.6-32.8,23.4-37.6-.3l-50.7-247.7h-24.1c0,0-27.3.1-27.3.1h-27.3c0,0-23.4.1-23.4.1v4.1c15.5,6.4,25.8,21,30.2,36.8v.5c0,0,.7,4.1.7,4.1v.5c0,0-2.1,311.8-2.1,311.8l-.7,104c-1.7,28.4,2.5,35.7-28.3,46.2l-1.8,19.7,12.6,5.7,33.3,15.1,33.5,15.3,10.4,4.8h0ZM1637,436l.2-2V131.8l-.3-2.6c-2.5-12.4-8.3-26-20.3-31.9-.8-.4-2.2-2.5-2.2-3.4v-15.9c0-2.1,1.8-3.8,3.8-3.8h114.6c2.1,0,3.8,1.8,3.8,3.8v7.4c0,3.2-8.3,7.3-10.7,9.8-8.1,8.2-11,20-11,31.3v334.6c-.5,19.6,8,34.8,27.2,40.9,1.2.4,2.7,2.4,2.7,3.7v15.3c0,3-2.2,4.6-5.1,3.6-41.5-14-84.6-23-128.2-27.5-1.7-.2-3.4-2.1-3.4-3.8v-15.9c0-3.9,8.7-5.8,12.3-8.7,9.5-7.6,14.2-20.5,16.4-32v-.5h0ZM1737.3,515.5v-7.2c-20.8-7.8-30.4-25.7-29.9-47.4V126.3c0-17.3,6.2-34.1,21.6-43.3v-1.3h-82.1l-24.8.2v9.7c13.1,7.6,19.5,22.3,22.4,36.5v.9c0,0,.3,1.5.3,1.5v.9c0,0,0,302.9,0,302.9v.9c0,0-.2,1.4-.2,1.4v.9c-3.3,17-11.4,35.7-28.7,42.5v9.6c41.2,4.5,81.9,13,121.3,25.9h0ZM1392.3,405.9l.5-3.2V137c0-33.8-30.9-36-30.9-42.4v-16.6c0-2.1,1.8-3.8,3.8-3.8h215.6c2,0,3.8,1.8,3.8,3.8v94.4c0,2.1-1.7,3.8-3.8,3.8h-31.1c-2.1,0-3.8-1.8-3.8-3.9,0-47.1-28.2-66.9-73.4-62.8-5.3.5-10.5,6.2-10.5,11.5v121c0,19.7,35.6,9.7,44.3,5.1,17.4-9.3,13.8-24.7,19.9-24.7h23.7c2.1,0,3.8,1.8,3.8,3.8v84c0,2.1-1.8,3.8-3.8,3.8h-24.1c-1.1,0-3.2-1.4-3.6-2.5-7.8-20.4-28-27.7-48.2-28.6-6.4-.2-11.8,4.8-12.1,11.2v114.8c-1.2,20.7,6,39.1,26.4,46.9,1,.4,2.4,2.5,2.4,3.6v9.3c0,8.1-23.2,2.9-34.5,2.3l-91.3-4.8c-2-.2-3.5-1.8-3.6-3.8v-17.2c0-3.6,8.9-6.6,11.8-8.9,9.3-7.3,15-18.3,18.5-29.4l.2-.9h0ZM1483.7,464.6v-2.6c-21.9-9.6-30.1-30.5-28.9-53.3v-114.2c0-10.9,9.3-19.7,20.2-19.2,22.3,1.1,44.4,9.4,54,31.1h17.6v-76.3h-16.7c-6.5,24.9-33.6,31.6-56.2,31.2-10-.2-18.8-9.2-18.8-19.2v-121c0-9.2,8.3-18.3,17.5-19.2,47.6-4.3,80.3,16.8,81.7,66.7h23.5v-86.8h-157.9l-50.1.3v9.9c19.1,8.4,30.9,23.6,30.9,45v266.6s-.8,4.6-.8,4.6v.6c-5.2,15.9-14.4,31.6-30.1,38.8v11l26.8,1.4,87.3,4.6h0ZM1154.3,465.2h-7s-7,0-7,0h-7c-2.1,0-3.8-1.8-3.8-3.9v-120.8c0-5.9,13.3-4,16.9-4.1,3.6,0,17.1-2.5,17.1,3.6v26.9c-.9,54.3,55.3,76.3,87.2,27.9l1.9-6.4v-45.8c0-29.7-47-51.1-69-65-28.3-17.8-58.2-40.6-58.2-77.5v-64.2c0-46.9,40.9-71.5,83.3-74.4,17.9-1.2,38.6,2.4,51.6,15.9,3.8,3.9,15.6,5.5,20.1,3.2,2.9-1.5,5.5-6.8,8.1-6.8h33.4c2,0,3.8,1.8,3.8,3.8v101.7c0,2.1-1.8,3.8-3.8,3.9h-35.8c-2.1,0-3.8-1.8-3.8-3.9v-29.6c0-29-24.9-54.3-54.6-43.2-17.1,6.4-25.1,23-25.1,40.5v23.4c0,35.6,27.8,54.5,54.5,71.4l5.7,3.6,5.8,3.6c30.5,19.5,55.3,39.1,55.3,78.7v75.5c0,23.5-21.8,45.7-41.2,55.8-32.9,17.2-69,11-99.9-7.6-9.7-5.9-17.4-1.7-17.5,9.7,0,2.1-1.8,3.7-3.8,3.8h-7,0ZM1154.2,457.5h3.5c2.1-15.6,16-20.2,28.9-12.4,28.6,17.2,61.9,23.2,92.4,7.3,16.6-8.7,37.1-28.6,37.1-49v-75.5c0-36.6-23.6-54.2-51.8-72.2l-5.8-3.6-5.7-3.6c-29.2-18.4-58.1-38.9-58.1-77.9v-23.4c0-69.1,95.1-66.2,95.1,2.7v25.7h28v-94h-27.4c-7.9,11.6-23.1,8.9-33.5,2.9-4.9-2.8-8.1-6.9-13.6-9.6-32.7-15.9-90.5,1.6-105.5,35.6-3.1,7.1-5,15.5-5,25.4v64.2c0,72.6,127.2,83.6,127.2,142.5v45.8c0,15.5-23.7,33.5-34.6,37.7-39.9,15.4-70.5-21.7-69.9-59.3v-23l-18.6.4v113.1h17.2s0,0,0,0ZM782.3,74h31.2c2,0,3.8,1.8,3.8,3.8v133.6c0,2.1-1.7,3.8-3.8,3.8h-41.5c-2.1,0-3.8-1.7-3.8-3.8v-74.5c0,0,0-.2-.2-.4l-.6-2.4-.6-2.3c-2.2-7.6-15-21.8-21.6-26.8-28-21.4-52.8-.3-66.8,25.4,0,0,0,.2,0,.4l-.6,2.4-.6,2.3c0,.2-.2.4-.2.4v320.3l.5,2.1.4,1.9c9.3,23,30.9,43.1,57.5,35.6,9-2.6,18.9-8.4,29.4-18.8,1.4-2.3,2.7-5.6,3.4-8.2v-30.1s0-90.6,0-90.6c0-2,1.8-3.8,3.8-3.8h40.5c2,0,3.8,1.8,3.8,3.8v126.4l-.2,1.2c-13.5,41.8-33.8,59.9-77.6,68.3-16.7,3.2-37.3,4.9-63,5-24.9,0-65.1-26.2-70.8-51.4v-.9c0,0,0-375.6,0-375.6,0-5.2,11.1-19,14.2-22.4,19-20.7,49-35.5,77.3-35.5s40.4.5,50.5,17.9c6.9,12,20.1,10.9,21.4-3.6.3-1.9,1.9-3.4,3.8-3.5h10.4s0,0,0,0ZM782.3,81.7h-7.1c-4.3,19.8-25.7,19.9-35.2,3.3-8.3-14.3-29.5-14.1-43.8-14.1-31,0-71.1,21.8-83.8,51v374.3c5.4,21.4,41.8,45,63.2,45,39.4,0,96.6-1.8,120.7-39.3,5.2-8.1,9-17.5,12.5-28.1v-121.9h-32.8v116.9c0,2.8-3.7,11.7-5.7,13.7-25.8,25.6-58.5,32.8-84.9,4-5-5.5-13.4-17.3-14.9-24.8l-.4-2-.4-2c-.1-.5-.2-1.1-.2-1.7V135.9c0-.2,0-1.1.4-2.2l.6-2.4.7-2.4c2.7-9.6,16-24.6,24-30.7,32.1-24,62.3.4,78.4,29.5,0,.2.4,1,.8,2.1l.7,2.5.6,2.5c.3,1.1.4,2,.4,2.2v70.7h33.8v-125.9h-27.4ZM325.5,561.8l.2.8c.3,2.3.4,4.5.4,6.8,0,2,0,4-.1,5.9l-.2,3.5-.3,3.9-.4,4.3c-.6,6.8-1.3,13.6-2.1,20.4l-1.4,12.1-1.5,13.4c-4.1,37.2-5.8,74.8-11.6,111.8l-.8,5.1c-.4,2.5-.6,7.7-4.6,7.7H57.9c-2.1,0-3.8-1.8-3.8-3.8v-8.4c0-2,2.1-3.4,3.7-4.1l1.4-.6,1.4-.7,1.4-.7c10.7-5.8,19.9-14.9,20-27.8V174c3.5-26.7,2.5-69.5-25.7-83.4-1.1-.8-1.9-2.1-2.2-3.4v-9.3c0-2.1,1.8-3.8,3.8-3.8h136.2c2.1,0,3.8,1.8,3.8,3.8v6.7c0,3.6-9.9,6.3-13.6,9.1-9.1,7-14.6,18.7-16.1,30v1.8c0,0,0,73.9,0,73.9v74.1c0,0,.1,74.1.1,74.1v74c0,0,.1,74.1.1,74.1v74c0,0,.1,74.1.1,74.1v74c0,6.4,5.6,11.8,12,11.5,52.8-1.9,76.5-8.1,89.4-64.3,6-26.1,8-53.4,9.4-80.1,2.2-40.9,44.5-32,46.2-23.2h0ZM190.3,81.8v-3.9l3.8,3.8H61.8v3.1c29.7,16.6,31.6,60.2,27.8,89.9v536.4c0,15.9-10.8,27.5-24.1,34.7l-1.5.8-1.5.8-1.5.7-1.4.6,2.3-3.5v4.6h238.1l.2-1.2.8-5.1c5.8-36.8,7.5-74.3,11.6-111.4l1.5-13.4,1.4-12.1c.8-6.7,1.5-13.5,2.1-20.2l.4-4.2.3-3.8.2-3.4c0-1.8.1-3.7.1-5.5s0-3.7-.3-5.5l-.3-1.4,2.1,2.8c-18.2-8.8-31.9.3-32.9,20.1-2.1,39.4-4.8,116.1-43.9,139.4-17.8,10.6-42.2,11.5-62.4,12.3-10.7.3-19.7-8.2-19.9-19v-74.3c0,0-.1-74-.1-74v-74.1c0,0-.1-74.1-.1-74.1v-74c0,0-.1-74.1-.1-74.1v-74.1c0,0-.1-74.2-.1-74.2v-.6s.1-1,.1-1v-.6c2.3-17.4,12.6-35,29.7-41.2h0ZM1777.4,529.1v-12.3c0-1.5,1.6-3.5,3.1-3.8l1.3-.3c23-5.6,26.5-34.3,26.5-54V144.1c0-19.4-5.6-48.2-28-53.6-1.4-.3-2.9-2.3-2.9-3.7v-8.6c0-2.1,1.8-3.8,3.8-3.8h129c2.1,0,3.8,1.8,3.8,3.8v10.6c0,4.9-13.4,5.3-19.8,20-3.8,8.8-4.5,18.8-4.5,28.2v385.3c0,6.1,5.4,11.6,11.5,11.6h23.2l2.4-.6,2.1-.5c35-16.5,45.1-78.7,48.9-112.5.6-5.1,13.1-3.8,16.7-3.9l4.4-.2c8.7,0,5.1,21.8,4.8,25.5-5,54.1-16.3,107.9-24.6,161.6-.4,3-2.9,4.2-5.6,2.8,0,0-4.9-2.6-14-6.8-57.3-26.8-118.1-47.4-179.5-62.3-1.4-.3-2.9-2.3-2.9-3.8v-4.1h0,0ZM1996.9,423.9l-11.7.4c-4.3,36.1-15.5,97.9-52.5,115.3-.6.2-1.2.4-1.9.6l-2.2.5-2.2.5c-.6.1-1.3.2-1.9.3h-23.2c-10.3,0-19.2-8.9-19.2-19.2V137c0-20.2,3.7-41.7,24.2-50.9v-4.1h-121.3v1.8c24.1,7.9,30.9,37.9,30.9,60.2v314.7c0,23.3-4.9,53.4-30.9,61v10.4c64,15.8,128.3,37.5,187.5,66.7,8.2-51.5,18.9-104.1,23.7-155.9.5-5.4,1.2-11.6.6-17.1h0ZM922.3,487.2c0,1.4-1.6,3.4-3,3.8l-76.2,18.2c-2.7.6-4.7-1-4.7-3.8v-14.7c0-.9,1.3-3,2.1-3.4,17.3-8.8,21.3-29.6,23.8-47l22.9-155.4,15.8-106.9,5.2-35.3,1.9-13c.6-29.4-24.2-32-24.2-38.4v-13.5c0-2.1,1.8-3.8,3.8-3.8h176.5c2.1,0,3.8,1.8,3.8,3.8v6.8c0,1.6-1.7,3.6-3.3,3.8-19.2,2.9-35.1,11.6-31.1,47.1,9.7,87.1,24.8,175.2,40.7,261.3,2.7,14.5,7.4,32.4,21.9,39.5,1.1.8,1.8,2,2.2,3.3.4,8.1,4.5,26.5-2.4,27.3l-111,12.5c-2.1.3-4-1.1-4.3-3.2,0-.2,0-.4,0-.6v-13.6c0-1.2,1.5-3.3,2.7-3.6,14.6-4.7,21.5-19.5,18.8-39.4-4.5-32.7-7.2-55.1-7.2-55.1-.6-4.9-6.5-10.2-11.5-10.2h-58.9c-4.3,0-10.5,5.1-11.3,9.3,0,0-10,50.4-13.6,78.5-3.1,24.2,20.4,21.3,20.4,28.6v17.1h0ZM1061.1,81.7h-167.4v6.9c15.5,6.3,24.5,25.5,24.1,41.3,0,0-.7,5.1-2,13.9l-5.2,35.3-15.8,106.9-22.9,155.4c-2.9,19.4-7.5,40.9-25.9,51.6v7.5l68.5-16.3v-11.2c-9.8-3.5-22.9-12.8-20.3-32.4,3.6-28.3,13.7-79,13.7-79,1.5-7.8,10.9-15.5,18.9-15.5h58.9c8.8,0,18,8.2,19.1,17,0,0,2.7,22.3,7.2,55,2.8,20.8-3.8,39.6-21.4,46.8v6.6l103.2-11.6-.8-17.6c-20.9-12-23.3-40-26.9-61.1-12.6-74.5-27.3-149.1-37.9-244.7-4.2-37.5,12.4-50.3,33-54.7h0ZM2169.6,758.6c-1.2,2.2-2.8,2.9-5.2,1.5-567.3-310.1-1203.7-338.4-1798.4-14.5-2.4,1.3-4,.7-5.2-1.5-1.2-2.2-.9-3.9,1.5-5.2,597.2-325.3,1236.4-296.7,1805.8,14.5,2.5,1.3,2.8,3,1.5,5.2h0Z"/>
</svg>