<?xml version="1.0" encoding="UTF-8"?><svg id="Netflix_Logo_RGB" xmlns="http://www.w3.org/2000/svg" viewBox="0 0 1800 755"><defs><style>.cls-1{fill:#e50914;}</style></defs><g id="Netflix_Logo_RGB-2"><path class="cls-1" d="M1289.05,533.68c20.06,1.54,40.09,3.18,60.09,4.96V185.84h-60.09v347.85ZM322.37,402.78l-78.26-216.95h-57.11v383.36c19.99-2.85,40.02-5.57,60.09-8.18v-208.47l69.59,199.91c21.89-2.54,43.81-4.94,65.78-7.2V185.84h-60.09v216.95ZM440.25,539.66c55.38-5.03,111.03-9.18,166.92-12.4v-59.22c-35.71,2.06-71.32,4.51-106.83,7.3v-89.64c23.3-.23,53.97-.94,81.15-.61v-59.21c-21.71-.05-56.61.3-81.15.62v-80.92h106.83v-59.74h-166.92v353.82ZM645.69,245.58h62.89v276.88c20-.75,40.03-1.38,60.09-1.9V245.58h62.89v-59.74h-185.87v59.74ZM870.09,518.94h60.09v-136.72h81.46v-59.21h-81.46v-77.43h107.66v-59.74h-167.75v333.1ZM1614,185.84h-66l-43.51,100.85-39.1-100.85h-65.01l69.86,180.21-76.27,176.79c21.1,2.06,42.15,4.25,63.16,6.57l44.36-102.79,43.93,113.31c22.88,2.94,45.71,6.01,68.49,9.26l.09-.04-78.28-201.89,78.28-181.42ZM1136.45,185.8h-60.09v336.07c54.61,1.88,108.99,4.63,163.15,8.25v-59.21c-34.26-2.29-68.62-4.22-103.06-5.83V185.8Z"/></g></svg>