<?xml version="1.0" encoding="UTF-8"?>
<svg id="Layer_1" xmlns="http://www.w3.org/2000/svg" version="1.1" viewBox="0 0 24 14">
  <!-- Generator: Adobe Illustrator 29.1.0, SVG Export Plug-In . SVG Version: 2.1.0 Build 142)  -->
  <path d="M2,7.8v-3.8s.7,0,1.6,0,.3,0,.4,0c1.4.1,2,.9,2,1.8s-.8,1.8-2,2c-.2,0-.3,0-.5,0h-1.5ZM4.8,9.1c1.7-.2,3.2-1.4,3.2-3.1s-1-3.3-4-3.4c-.1,0-.3,0-.4,0C1.5,2.5,0,2.6,0,2.6c0,0,0,1,0,1.6v7.6c0,.7-.1,1.4-.1,1.4h2.1s-.1-.7-.1-1.6v-3.1l2,2.1,1,1c.6.7,1.7,1.6,1.7,1.6h2.8s-1.3-.9-1.8-1.4l-2.8-2.7ZM23.9,1.9c-.7-.2-1.3-.3-2-.3-1.8,0-3.3.5-4.6,1.7v-1.3c1.4-.9,2.9-1.3,4.6-1.3s1.4,0,2.1.3v.9M11.3,13.2s.1-.8.1-1.5v-7.4h-.5c-.7,0-1.7,0-2.5,0v-1.7c0,0,8.1,0,8.1,0v1.7c-.8,0-1.9,0-2.6,0h-.6v7.4c0,.7.1,1.5.1,1.5h-2.1M21.7,11.7c-1.8,0-3.4-1.3-3.7-3.2h3.5c.4,0,1.2,0,1.2,0v-1.5s-.8,0-1.3,0h-3.4c.3-1.8,1.8-3.1,3.7-3.1s2.1.4,2.1.4v-1.6s-.8-.3-2.1-.3c-3.1,0-5.7,2.3-5.7,5.3s2.7,5.4,5.7,5.4,2.3-.4,2.3-.4v-1.7s-1.1.5-2.3.5h0Z"/>
</svg>