<?xml version="1.0" encoding="UTF-8"?>
<svg id="Layer_2" xmlns="http://www.w3.org/2000/svg" xmlns:xlink="http://www.w3.org/1999/xlink" version="1.1" viewBox="0 0 259.3 217.9">
  <!-- Generator: Adobe Illustrator 29.1.0, SVG Export Plug-In . SVG Version: 2.1.0 Build 142)  -->
  <defs>
    <style>
      .st0 {
        fill: #f4f4f4;
      }

      .st1 {
        fill: url(#linear-gradient);
      }

      .st2 {
        fill: #fff;
      }

      .st3 {
        fill: #bcbcbc;
      }

      .st4 {
        fill: #efe4e4;
      }
    </style>
    <linearGradient id="linear-gradient" x1="16.9" y1="318.7" x2="234.6" y2="101" gradientTransform="translate(0 316) scale(1 -1)" gradientUnits="userSpaceOnUse">
      <stop offset="0" stop-color="#111"/>
      <stop offset=".9" stop-color="#333"/>
    </linearGradient>
  </defs>
  <path class="st1" d="M10.6,5.7h216.7c14.3,0,26,11.6,26,26v156.5c0,14.3-11.6,26-26,26H31.8c-14.3,0-26-11.6-26-26V10.5c0-2.7,2.2-4.8,4.8-4.8h0Z"/>
  <rect class="st3" x="48" y="139.6" width="77.5" height="26.2" rx="3" ry="3" transform="translate(-82.6 106) rotate(-45)"/>
  <rect class="st0" x="73.6" y="77.7" width="26.2" height="77.5" rx="3" ry="3" transform="translate(-57 95.4) rotate(-45)"/>
  <rect class="st4" x="136.5" y="161.5" width="77.5" height="26.2" rx="3" ry="3"/>
  <path class="st2" d="M67.6,52.8h-22.3c-3.6,0-5.9-3.8-4.3-7L61,5.5h33.1l-22.1,44.6c-.8,1.6-2.5,2.7-4.3,2.7h0Z"/>
  <path class="st2" d="M127.6,52.8h-22.3c-3.6,0-5.9-3.8-4.3-7L121,5.5h33.1l-22.1,44.6c-.8,1.6-2.5,2.7-4.3,2.7h0Z"/>
  <path class="st2" d="M187.6,52.8h-22.3c-3.6,0-5.9-3.8-4.3-7l20-40.3h33.1l-22.1,44.6c-.8,1.6-2.5,2.7-4.3,2.7h0Z"/>
</svg>