<?xml version="1.0" encoding="UTF-8"?><svg id="Layer_2" xmlns="http://www.w3.org/2000/svg" xmlns:xlink="http://www.w3.org/1999/xlink" viewBox="0 0 967.81 203.39"><defs><style>.cls-1{fill:url(#linear-gradient);}.cls-2{fill:#fff;}.cls-3{fill:#bcbcbc;}.cls-4{fill:#efe4e4;}.cls-5{fill:#f4f4f4;filter:url(#drop-shadow-1);}.cls-6{fill:#161616;}</style><linearGradient id="linear-gradient" x1="18.3" y1="1.11" x2="211.02" y2="193.83" gradientUnits="userSpaceOnUse"><stop offset=".1" stop-color="#111"/><stop offset=".93" stop-color="#333"/></linearGradient><filter id="drop-shadow-1" x="40.6" y="60.14" width="92.88" height="92.88" filterUnits="userSpaceOnUse"><feOffset dx="7" dy="7"/><feGaussianBlur result="blur" stdDeviation="5"/><feFlood flood-color="#000" flood-opacity=".3"/><feComposite in2="blur" operator="in"/><feComposite in="SourceGraphic"/></filter></defs><path class="cls-1" d="M12.68,8.5h191.91c12.7,0,23.01,10.31,23.01,23.01v138.6c0,12.7-10.31,23.01-23.01,23.01H31.41c-12.7,0-23.01-10.31-23.01-23.01V12.78c0-2.36,1.92-4.28,4.28-4.28Z"/><rect class="cls-3" x="45.78" y="120.11" width="68.63" height="23.24" rx="2.69" ry="2.69" transform="translate(-69.69 95.22) rotate(-45)"/><rect class="cls-5" x="45.78" y="88.01" width="68.63" height="23.24" rx="2.69" ry="2.69" transform="translate(93.91 -27.45) rotate(45)"/><rect class="cls-4" x="124.19" y="139.5" width="68.63" height="23.24" rx="2.69" ry="2.69"/><path class="cls-2" d="M60.14,43.28h-19.73c-3.18,0-5.24-3.34-3.84-6.18L54.27,1.39h29.28l-19.58,39.51c-.72,1.46-2.21,2.38-3.84,2.38Z"/><path class="cls-2" d="M121.27,43.28h-19.73c-3.18,0-5.24-3.34-3.84-6.18L115.4,1.39h29.28l-19.58,39.51c-.72,1.46-2.21,2.38-3.84,2.38Z"/><path class="cls-2" d="M182.4,43.28h-19.73c-3.18,0-5.24-3.34-3.84-6.18L176.53,1.39h29.28l-19.58,39.51c-.72,1.46-2.21,2.38-3.84,2.38Z"/><path class="cls-6" d="M304.64,46.78h42.9c25.05,0,40.2,14.85,40.2,36.3v.3c0,24.3-18.9,36.9-42.45,36.9h-17.55v31.5h-23.1V46.78ZM346.04,99.73c11.55,0,18.3-6.9,18.3-15.9v-.3c0-10.35-7.2-15.9-18.75-15.9h-17.85v32.1h18.3Z"/><path class="cls-6" d="M391.79,112.03v-.3c0-23.1,18.6-41.85,43.65-41.85s43.35,18.45,43.35,41.55v.3c0,23.1-18.6,41.85-43.65,41.85s-43.35-18.45-43.35-41.55ZM456.29,112.03v-.3c0-11.85-8.55-22.2-21.15-22.2s-20.85,10.05-20.85,21.9v.3c0,11.85,8.55,22.2,21.15,22.2s20.85-10.05,20.85-21.9Z"/><path class="cls-6" d="M482.99,141.13l9.75-15c8.7,6.3,17.85,9.6,25.35,9.6,6.6,0,9.6-2.4,9.6-6v-.3c0-4.95-7.8-6.6-16.65-9.3-11.25-3.3-24-8.55-24-24.15v-.3c0-16.35,13.2-25.5,29.4-25.5,10.2,0,21.3,3.45,30,9.3l-8.7,15.75c-7.95-4.65-15.9-7.5-21.75-7.5s-8.4,2.4-8.4,5.55v.3c0,4.5,7.65,6.6,16.35,9.6,11.25,3.75,24.3,9.15,24.3,23.85v.3c0,17.85-13.35,25.95-30.75,25.95-11.25,0-23.85-3.75-34.5-12.15Z"/><path class="cls-6" d="M560.84,128.98v-38.1h-9.6v-19.5h9.6v-20.55h22.8v20.55h18.9v19.5h-18.9v34.35c0,5.25,2.25,7.8,7.35,7.8,4.2,0,7.95-1.05,11.25-2.85v18.3c-4.8,2.85-10.35,4.65-18,4.65-13.95,0-23.4-5.55-23.4-24.15Z"/><path class="cls-6" d="M607.19,112.03v-.3c0-22.95,17.55-41.85,42.15-41.85,15.15,0,24.6,5.1,32.1,13.5l-13.95,15c-5.1-5.4-10.2-8.85-18.3-8.85-11.4,0-19.5,10.05-19.5,21.9v.3c0,12.3,7.95,22.2,20.4,22.2,7.65,0,12.9-3.3,18.45-8.55l13.35,13.5c-7.8,8.55-16.8,14.7-32.85,14.7-24.15,0-41.85-18.6-41.85-41.55Z"/><path class="cls-6" d="M684.59,112.03v-.3c0-23.1,18.6-41.85,43.65-41.85s43.35,18.45,43.35,41.55v.3c0,23.1-18.6,41.85-43.65,41.85s-43.35-18.45-43.35-41.55ZM749.09,112.03v-.3c0-11.85-8.55-22.2-21.15-22.2s-20.85,10.05-20.85,21.9v.3c0,11.85,8.55,22.2,21.15,22.2s20.85-10.05,20.85-21.9Z"/><path class="cls-6" d="M778.49,111.73v-.3c0-26.85,17.55-41.55,36.6-41.55,12.15,0,19.65,5.55,25.05,12v-39.6h22.8v109.5h-22.8v-11.55c-5.55,7.5-13.2,13.05-25.05,13.05-18.75,0-36.6-14.7-36.6-41.55ZM840.44,111.73v-.3c0-13.35-8.85-22.2-19.5-22.2s-19.65,8.7-19.65,22.2v.3c0,13.35,9,22.2,19.65,22.2s19.5-8.85,19.5-22.2Z"/><path class="cls-6" d="M873.44,112.03v-.3c0-22.95,16.35-41.85,39.75-41.85,26.85,0,39.15,20.85,39.15,43.65,0,1.8-.15,3.9-.3,6h-55.95c2.25,10.35,9.45,15.75,19.65,15.75,7.65,0,13.2-2.4,19.5-8.25l13.05,11.55c-7.5,9.3-18.3,15-32.85,15-24.15,0-42-16.95-42-41.55ZM930.13,105.28c-1.35-10.2-7.35-17.1-16.95-17.1s-15.6,6.75-17.4,17.1h34.35Z"/></svg>