<?xml version="1.0" encoding="UTF-8"?><svg id="Layer_2" xmlns="http://www.w3.org/2000/svg" xmlns:xlink="http://www.w3.org/1999/xlink" viewBox="0 0 275.44 307.17"><defs><style>.cls-1{fill:url(#linear-gradient);}.cls-2{fill:#fff;}.cls-3{fill:#bcbcbc;}.cls-4{fill:#efe4e4;}.cls-5{fill:#f4f4f4;filter:url(#drop-shadow-1);}.cls-6{fill:#161616;}</style><linearGradient id="linear-gradient" x1="25.27" y1="2.73" x2="242.91" y2="220.36" gradientUnits="userSpaceOnUse"><stop offset=".1" stop-color="#111"/><stop offset=".93" stop-color="#333"/></linearGradient><filter id="drop-shadow-1" x="51.5" y="78.23" width="101.04" height="101.28" filterUnits="userSpaceOnUse"><feOffset dx="7" dy="7"/><feGaussianBlur result="blur" stdDeviation="5"/><feFlood flood-color="#000" flood-opacity=".3"/><feComposite in2="blur" operator="in"/><feComposite in="SourceGraphic"/></filter></defs><path class="cls-1" d="M18.93,11.07h216.71c14.34,0,25.99,11.64,25.99,25.99v156.51c0,14.34-11.64,25.99-25.99,25.99H40.08c-14.34,0-25.99-11.64-25.99-25.99V15.91c0-2.67,2.17-4.83,4.83-4.83Z"/><rect class="cls-3" x="56.3" y="145.01" width="77.5" height="26.24" rx="3.04" ry="3.04" transform="translate(-83.98 113.53) rotate(-45)"/><rect class="cls-5" x="56.3" y="108.77" width="77.5" height="26.24" rx="3.04" ry="3.04" transform="translate(114.03 -31.51) rotate(45)"/><rect class="cls-4" x="144.85" y="166.91" width="77.5" height="26.24" rx="3.04" ry="3.04"/><path class="cls-2" d="M75.91,58.25h-22.28c-3.59,0-5.92-3.77-4.33-6.98l19.98-40.32h33.07l-22.11,44.62c-.82,1.65-2.49,2.69-4.33,2.69Z"/><path class="cls-2" d="M135.91,58.25h-22.28c-3.59,0-5.92-3.77-4.33-6.98l19.98-40.32h33.07l-22.11,44.62c-.82,1.65-2.49,2.69-4.33,2.69Z"/><path class="cls-2" d="M195.91,58.25h-22.28c-3.59,0-5.92-3.77-4.33-6.98l19.98-40.32h33.07l-22.11,44.62c-.82,1.65-2.49,2.69-4.33,2.69Z"/><path class="cls-6" d="M16.44,257.23h16.02c9.35,0,15.01,5.54,15.01,13.55v.11c0,9.07-7.06,13.78-15.85,13.78h-6.55v11.76h-8.62v-39.2ZM31.9,276.99c4.31,0,6.83-2.58,6.83-5.94v-.11c0-3.86-2.69-5.94-7-5.94h-6.66v11.98h6.83Z"/><path class="cls-6" d="M48.98,281.59v-.11c0-8.62,6.94-15.62,16.3-15.62s16.18,6.89,16.18,15.51v.11c0,8.62-6.94,15.62-16.3,15.62s-16.18-6.89-16.18-15.51ZM73.06,281.59v-.11c0-4.42-3.19-8.29-7.9-8.29s-7.78,3.75-7.78,8.18v.11c0,4.42,3.19,8.29,7.9,8.29s7.78-3.75,7.78-8.18Z"/><path class="cls-6" d="M83.03,292.45l3.64-5.6c3.25,2.35,6.66,3.58,9.46,3.58,2.46,0,3.58-.9,3.58-2.24v-.11c0-1.85-2.91-2.46-6.22-3.47-4.2-1.23-8.96-3.19-8.96-9.02v-.11c0-6.1,4.93-9.52,10.98-9.52,3.81,0,7.95,1.29,11.2,3.47l-3.25,5.88c-2.97-1.74-5.94-2.8-8.12-2.8s-3.14.9-3.14,2.07v.11c0,1.68,2.86,2.46,6.1,3.58,4.2,1.4,9.07,3.42,9.07,8.9v.11c0,6.66-4.98,9.69-11.48,9.69-4.2,0-8.9-1.4-12.88-4.54Z"/><path class="cls-6" d="M112.09,287.91v-14.22h-3.58v-7.28h3.58v-7.67h8.51v7.67h7.06v7.28h-7.06v12.82c0,1.96.84,2.91,2.74,2.91,1.57,0,2.97-.39,4.2-1.06v6.83c-1.79,1.06-3.86,1.74-6.72,1.74-5.21,0-8.74-2.07-8.74-9.02Z"/><path class="cls-6" d="M129.39,281.59v-.11c0-8.57,6.55-15.62,15.74-15.62,5.66,0,9.18,1.9,11.98,5.04l-5.21,5.6c-1.9-2.02-3.81-3.3-6.83-3.3-4.26,0-7.28,3.75-7.28,8.18v.11c0,4.59,2.97,8.29,7.62,8.29,2.86,0,4.82-1.23,6.89-3.19l4.98,5.04c-2.91,3.19-6.27,5.49-12.26,5.49-9.02,0-15.62-6.94-15.62-15.51Z"/><path class="cls-6" d="M158.29,281.59v-.11c0-8.62,6.94-15.62,16.3-15.62s16.18,6.89,16.18,15.51v.11c0,8.62-6.94,15.62-16.3,15.62s-16.18-6.89-16.18-15.51ZM182.37,281.59v-.11c0-4.42-3.19-8.29-7.9-8.29s-7.78,3.75-7.78,8.18v.11c0,4.42,3.19,8.29,7.9,8.29s7.78-3.75,7.78-8.18Z"/><path class="cls-6" d="M193.35,281.47v-.11c0-10.02,6.55-15.51,13.66-15.51,4.54,0,7.34,2.07,9.35,4.48v-14.78h8.51v40.88h-8.51v-4.31c-2.07,2.8-4.93,4.87-9.35,4.87-7,0-13.66-5.49-13.66-15.51ZM216.47,281.47v-.11c0-4.98-3.3-8.29-7.28-8.29s-7.34,3.25-7.34,8.29v.11c0,4.98,3.36,8.29,7.34,8.29s7.28-3.3,7.28-8.29Z"/><path class="cls-6" d="M228.79,281.59v-.11c0-8.57,6.1-15.62,14.84-15.62,10.02,0,14.62,7.78,14.62,16.3,0,.67-.06,1.46-.11,2.24h-20.89c.84,3.86,3.53,5.88,7.34,5.88,2.86,0,4.93-.9,7.28-3.08l4.87,4.31c-2.8,3.47-6.83,5.6-12.26,5.6-9.02,0-15.68-6.33-15.68-15.51ZM249.96,279.07c-.5-3.81-2.74-6.38-6.33-6.38s-5.82,2.52-6.5,6.38h12.82Z"/></svg>